<svg width="310" height="68" viewBox="0 0 310 68" fill="none" xmlns="http://www.w3.org/2000/svg">
<path d="M18.744 46.24C14.936 46.24 11.624 45.552 8.80801 44.176C5.99201 42.768 3.83201 40.784 2.32801 38.224C0.824006 35.664 0.0720062 32.688 0.0720062 29.296C0.0720062 24.592 0.952006 20.416 2.71201 16.768C4.50401 13.12 6.92001 10.304 9.96001 8.32C13 6.304 16.376 5.296 20.088 5.296C23.544 5.296 26.168 6.192 27.96 7.984C29.752 9.744 30.648 12.08 30.648 14.992C30.648 16.944 30.296 18.512 29.592 19.696C28.92 20.88 27.944 21.472 26.664 21.472C25.768 21.472 25.064 21.264 24.552 20.848C24.04 20.432 23.784 19.824 23.784 19.024C23.784 18.736 23.848 18.208 23.976 17.44C24.168 16.48 24.264 15.712 24.264 15.136C24.264 12.224 22.712 10.768 19.608 10.768C17.496 10.768 15.48 11.456 13.56 12.832C11.64 14.208 10.088 16.24 8.90401 18.928C7.72001 21.584 7.12801 24.752 7.12801 28.432C7.12801 32.272 8.20001 35.248 10.344 37.36C12.488 39.44 15.656 40.48 19.848 40.48C21.928 40.48 24.024 40.224 26.136 39.712C28.28 39.168 30.648 38.352 33.24 37.264C33.72 37.072 34.12 36.976 34.44 36.976C34.952 36.976 35.336 37.168 35.592 37.552C35.848 37.936 35.976 38.432 35.976 39.04C35.976 40.992 34.92 42.432 32.808 43.36C30.536 44.352 28.168 45.088 25.704 45.568C23.272 46.016 20.952 46.24 18.744 46.24Z"/>
<path d="M58.8503 35.296C59.2663 35.296 59.5863 35.488 59.8103 35.872C60.0663 36.256 60.1943 36.784 60.1943 37.456C60.1943 38.736 59.8903 39.728 59.2823 40.432C57.8103 42.128 56.2903 43.52 54.7223 44.608C53.1863 45.696 51.4263 46.24 49.4423 46.24C47.8103 46.24 46.5783 45.776 45.7463 44.848C44.9143 43.888 44.4983 42.512 44.4983 40.72C44.4983 39.824 44.7223 38.224 45.1703 35.92C45.5863 33.904 45.7943 32.512 45.7943 31.744C45.7943 31.232 45.6183 30.976 45.2663 30.976C44.8503 30.976 44.2583 31.52 43.4903 32.608C42.7223 33.664 41.9543 35.072 41.1863 36.832C40.4183 38.592 39.7943 40.448 39.3143 42.4C38.7063 44.96 37.2023 46.24 34.8023 46.24C33.8423 46.24 33.2023 45.904 32.8823 45.232C32.5943 44.528 32.4503 43.28 32.4503 41.488C32.4503 40.464 32.4663 39.648 32.4983 39.04L32.5463 35.2C32.5463 30.272 33.0423 25.136 34.0343 19.792C35.0583 14.448 36.5463 9.968 38.4983 6.352C40.4823 2.704 42.8503 0.879997 45.6023 0.879997C47.0743 0.879997 48.2583 1.52 49.1543 2.8C50.0823 4.048 50.5463 5.68 50.5463 7.696C50.5463 10.928 49.6023 14.288 47.7143 17.776C45.8263 21.232 42.7543 25.28 38.4983 29.92C38.4023 31.584 38.3543 33.296 38.3543 35.056C39.4103 32.336 40.5783 30.128 41.8583 28.432C43.1703 26.704 44.4503 25.472 45.6983 24.736C46.9783 24 48.1463 23.632 49.2023 23.632C51.2823 23.632 52.3223 24.672 52.3223 26.752C52.3223 28 51.9703 30.256 51.2663 33.52C50.6583 36.304 50.3543 38.144 50.3543 39.04C50.3543 40.32 50.8183 40.96 51.7463 40.96C52.3863 40.96 53.1383 40.576 54.0023 39.808C54.8983 39.008 56.0823 37.728 57.5543 35.968C57.9383 35.52 58.3703 35.296 58.8503 35.296ZM44.5943 5.632C44.0183 5.632 43.3783 6.464 42.6743 8.128C41.9703 9.76 41.2823 11.984 40.6103 14.8C39.9703 17.584 39.4423 20.624 39.0263 23.92C41.0103 21.584 42.6423 19.04 43.9223 16.288C45.2343 13.536 45.8903 11.04 45.8903 8.8C45.8903 7.776 45.7783 6.992 45.5543 6.448C45.3303 5.904 45.0103 5.632 44.5943 5.632Z"/>
<path d="M59.712 46.24C58.496 46.24 57.632 45.6 57.12 44.32C56.64 43.04 56.4 40.992 56.4 38.176C56.4 34.016 56.992 30.064 58.176 26.32C58.464 25.392 58.928 24.72 59.568 24.304C60.24 23.856 61.168 23.632 62.352 23.632C62.992 23.632 63.44 23.712 63.696 23.872C63.952 24.032 64.08 24.336 64.08 24.784C64.08 25.296 63.84 26.448 63.36 28.24C63.04 29.52 62.784 30.64 62.592 31.6C62.4 32.56 62.24 33.744 62.112 35.152C63.168 32.4 64.352 30.16 65.664 28.432C66.976 26.704 68.256 25.472 69.504 24.736C70.784 24 71.952 23.632 73.008 23.632C75.088 23.632 76.128 24.672 76.128 26.752C76.128 27.168 75.984 28.176 75.696 29.776C75.44 31.056 75.312 31.856 75.312 32.176C75.312 33.296 75.712 33.856 76.512 33.856C77.408 33.856 78.56 33.152 79.968 31.744C80.384 31.328 80.816 31.12 81.264 31.12C81.68 31.12 82 31.312 82.224 31.696C82.48 32.048 82.608 32.528 82.608 33.136C82.608 34.32 82.288 35.248 81.648 35.92C80.752 36.848 79.696 37.648 78.48 38.32C77.296 38.96 76.032 39.28 74.688 39.28C72.992 39.28 71.696 38.848 70.8 37.984C69.936 37.12 69.504 35.952 69.504 34.48C69.504 34 69.552 33.52 69.648 33.04C69.712 32.4 69.744 31.968 69.744 31.744C69.744 31.232 69.568 30.976 69.216 30.976C68.736 30.976 68.096 31.52 67.296 32.608C66.528 33.664 65.76 35.072 64.992 36.832C64.224 38.592 63.6 40.448 63.12 42.4C62.768 43.904 62.352 44.928 61.872 45.472C61.424 45.984 60.704 46.24 59.712 46.24Z"/>
<path d="M84.4358 20.464C83.0918 20.464 82.0838 20.16 81.4118 19.552C80.7398 18.912 80.4038 18.032 80.4038 16.912C80.4038 15.792 80.8358 14.864 81.6998 14.128C82.5958 13.36 83.6998 12.976 85.0118 12.976C86.1958 12.976 87.1558 13.264 87.8918 13.84C88.6278 14.416 88.9958 15.232 88.9958 16.288C88.9958 17.568 88.5798 18.592 87.7478 19.36C86.9158 20.096 85.8118 20.464 84.4358 20.464ZM84.0518 46.24C81.9718 46.24 80.4518 45.504 79.4918 44.032C78.5638 42.56 78.0998 40.608 78.0998 38.176C78.0998 36.736 78.2758 34.896 78.6278 32.656C79.0118 30.384 79.4918 28.272 80.0678 26.32C80.3558 25.296 80.7398 24.592 81.2198 24.208C81.6998 23.824 82.4678 23.632 83.5238 23.632C85.1558 23.632 85.9718 24.176 85.9718 25.264C85.9718 26.064 85.6678 27.92 85.0598 30.832C84.2918 34.352 83.9078 36.736 83.9078 37.984C83.9078 38.944 84.0358 39.68 84.2918 40.192C84.5478 40.704 84.9798 40.96 85.5878 40.96C86.1638 40.96 86.8838 40.56 87.7478 39.76C88.6118 38.96 89.7638 37.696 91.2038 35.968C91.5878 35.52 92.0198 35.296 92.4998 35.296C92.9158 35.296 93.2358 35.488 93.4598 35.872C93.7158 36.256 93.8438 36.784 93.8438 37.456C93.8438 38.736 93.5398 39.728 92.9318 40.432C89.7638 44.304 86.8038 46.24 84.0518 46.24Z"/>
<path d="M98.8883 47.296C97.2243 47.296 95.9443 46.912 95.0483 46.144C94.1843 45.376 93.7523 44.512 93.7523 43.552C93.7523 42.72 94.0563 42 94.6643 41.392C95.2723 40.784 96.1683 40.48 97.3523 40.48C97.7683 40.48 98.2483 40.528 98.7923 40.624C99.3683 40.688 99.8003 40.736 100.088 40.768C100.056 39.936 99.8643 39.152 99.5123 38.416C99.1923 37.68 98.7763 36.976 98.2643 36.304C97.7523 35.6 97.2723 34.992 96.8243 34.48C95.8323 36.368 94.8403 37.936 93.8483 39.184C92.8883 40.432 91.8323 41.616 90.6803 42.736C90.1043 43.312 89.4963 43.6 88.8563 43.6C88.3443 43.6 87.9283 43.424 87.6083 43.072C87.2883 42.688 87.1283 42.224 87.1283 41.68C87.1283 41.04 87.3523 40.448 87.8003 39.904L88.4243 39.136C90.1843 36.96 91.5123 35.168 92.4083 33.76C92.9843 32.832 93.5603 31.728 94.1363 30.448C94.7443 29.168 95.5283 27.424 96.4883 25.216C97.0963 23.808 98.3603 23.104 100.28 23.104C101.176 23.104 101.8 23.184 102.152 23.344C102.504 23.504 102.68 23.76 102.68 24.112C102.68 24.304 102.616 24.608 102.488 25.024C102.36 25.44 102.184 25.856 101.96 26.272C101.384 27.424 101.096 28.4 101.096 29.2C101.096 29.68 101.256 30.208 101.576 30.784C101.928 31.36 102.456 32.08 103.16 32.944C104.184 34.288 104.952 35.44 105.464 36.4C106.008 37.328 106.28 38.352 106.28 39.472C106.28 40.816 105.96 42.096 105.32 43.312C104.712 44.496 103.848 45.456 102.728 46.192C101.608 46.928 100.328 47.296 98.8883 47.296Z"/>
<path d="M130.386 46.24C129.202 46.24 128.354 45.984 127.842 45.472C127.33 44.928 127.074 43.92 127.074 42.448C127.074 41.456 127.17 40.192 127.362 38.656C127.586 37.088 127.938 34.944 128.418 32.224C129.25 27.2 129.906 22.848 130.386 19.168C130.674 16.864 130.818 14.944 130.818 13.408C130.818 11.968 130.29 11.248 129.234 11.248C128.402 11.248 127.394 11.68 126.21 12.544C125.058 13.376 123.778 14.72 122.37 16.576C121.922 17.184 121.426 17.488 120.882 17.488C120.434 17.488 120.034 17.28 119.682 16.864C119.362 16.416 119.202 15.92 119.202 15.376C119.202 14.864 119.298 14.352 119.49 13.84C119.714 13.296 120.066 12.688 120.546 12.016C122.082 9.872 123.794 8.224 125.682 7.072C127.57 5.888 129.458 5.296 131.346 5.296C133.106 5.296 134.45 5.856 135.378 6.976C136.338 8.096 136.818 9.728 136.818 11.872C136.818 12.736 136.738 13.76 136.578 14.944C136.418 16.096 136.274 17.04 136.146 17.776C136.018 18.512 135.922 19.024 135.858 19.312C137.682 14.096 139.73 10.464 142.002 8.416C144.274 6.336 146.77 5.296 149.49 5.296C151.57 5.296 153.202 6.032 154.386 7.504C155.602 8.976 156.21 11.056 156.21 13.744C156.21 14.8 156.066 16.112 155.778 17.68C157.378 13.264 159.25 10.096 161.394 8.176C163.538 6.256 166.002 5.296 168.786 5.296C171.026 5.296 172.738 6.016 173.922 7.456C175.138 8.896 175.746 10.912 175.746 13.504C175.746 14.912 175.538 16.624 175.122 18.64L172.194 32.368C171.874 33.968 171.714 35.344 171.714 36.496C171.714 37.84 172.018 38.848 172.626 39.52C173.266 40.192 174.146 40.528 175.266 40.528C176.322 40.528 177.346 40.176 178.338 39.472C179.362 38.768 180.562 37.6 181.938 35.968C182.322 35.52 182.754 35.296 183.234 35.296C183.65 35.296 183.97 35.488 184.194 35.872C184.45 36.256 184.578 36.784 184.578 37.456C184.578 38.704 184.274 39.696 183.666 40.432C182.002 42.448 180.354 43.92 178.722 44.848C177.09 45.776 175.378 46.24 173.586 46.24C170.866 46.24 168.738 45.44 167.202 43.84C165.666 42.208 164.898 40.032 164.898 37.312C164.898 35.424 165.282 32.688 166.05 29.104L167.97 20.32C168.034 20.032 168.146 19.52 168.306 18.784C168.466 18.048 168.594 17.36 168.69 16.72C168.786 16.048 168.834 15.392 168.834 14.752C168.834 13.632 168.61 12.8 168.162 12.256C167.746 11.68 167.138 11.392 166.338 11.392C164.834 11.392 163.25 12.368 161.586 14.32C159.954 16.24 158.386 19.44 156.882 23.92C155.41 28.4 154.21 34.224 153.282 41.392C153.058 43.312 152.658 44.608 152.082 45.28C151.538 45.92 150.642 46.24 149.394 46.24C148.306 46.24 147.506 45.984 146.994 45.472C146.514 44.96 146.274 44 146.274 42.592C146.274 41.28 146.45 39.568 146.802 37.456C147.154 35.312 147.602 32.8 148.146 29.92C149.618 22.176 150.354 17.184 150.354 14.944C150.354 13.728 150.114 12.832 149.634 12.256C149.186 11.68 148.498 11.392 147.57 11.392C146.002 11.392 144.386 12.288 142.722 14.08C141.058 15.84 139.426 18.992 137.826 23.536C136.258 28.048 134.946 34.16 133.89 41.872C133.666 43.504 133.33 44.64 132.882 45.28C132.466 45.92 131.634 46.24 130.386 46.24Z"/>
<path d="M202.118 35.296C202.534 35.296 202.854 35.488 203.078 35.872C203.334 36.256 203.462 36.784 203.462 37.456C203.462 38.736 203.158 39.728 202.55 40.432C201.366 41.872 199.686 43.2 197.51 44.416C195.366 45.632 193.062 46.24 190.598 46.24C187.238 46.24 184.63 45.328 182.774 43.504C180.918 41.68 179.99 39.184 179.99 36.016C179.99 33.808 180.454 31.76 181.382 29.872C182.31 27.952 183.59 26.432 185.222 25.312C186.886 24.192 188.758 23.632 190.838 23.632C192.694 23.632 194.182 24.192 195.302 25.312C196.422 26.4 196.982 27.888 196.982 29.776C196.982 31.984 196.182 33.888 194.582 35.488C193.014 37.056 190.342 38.304 186.566 39.232C187.366 40.704 188.886 41.44 191.126 41.44C192.566 41.44 194.198 40.944 196.022 39.952C197.878 38.928 199.478 37.6 200.822 35.968C201.206 35.52 201.638 35.296 202.118 35.296ZM190.022 28.336C188.838 28.336 187.83 29.024 186.998 30.4C186.198 31.776 185.798 33.44 185.798 35.392V35.488C187.686 35.04 189.174 34.368 190.262 33.472C191.35 32.576 191.894 31.536 191.894 30.352C191.894 29.744 191.718 29.264 191.366 28.912C191.046 28.528 190.598 28.336 190.022 28.336Z"/>
<path d="M205.224 46.24C203.24 46.24 201.656 45.52 200.472 44.08C199.288 42.64 198.696 40.752 198.696 38.416C198.696 35.856 199.288 33.44 200.472 31.168C201.656 28.864 203.224 27.024 205.176 25.648C207.16 24.24 209.256 23.536 211.464 23.536C212.168 23.536 212.632 23.68 212.856 23.968C213.112 24.224 213.32 24.704 213.48 25.408C214.152 25.28 214.856 25.216 215.592 25.216C217.16 25.216 217.944 25.776 217.944 26.896C217.944 27.568 217.704 29.168 217.224 31.696C216.488 35.376 216.12 37.936 216.12 39.376C216.12 39.856 216.232 40.24 216.456 40.528C216.712 40.816 217.032 40.96 217.416 40.96C218.024 40.96 218.76 40.576 219.624 39.808C220.488 39.008 221.656 37.728 223.128 35.968C223.512 35.52 223.944 35.296 224.424 35.296C224.84 35.296 225.16 35.488 225.384 35.872C225.64 36.256 225.768 36.784 225.768 37.456C225.768 38.736 225.464 39.728 224.856 40.432C223.544 42.064 222.152 43.44 220.68 44.56C219.208 45.68 217.784 46.24 216.408 46.24C215.352 46.24 214.376 45.888 213.48 45.184C212.616 44.448 211.96 43.456 211.512 42.208C209.848 44.896 207.752 46.24 205.224 46.24ZM206.952 41.392C207.656 41.392 208.328 40.976 208.968 40.144C209.608 39.312 210.072 38.208 210.36 36.832L212.136 28C210.792 28.032 209.544 28.544 208.392 29.536C207.272 30.496 206.376 31.776 205.704 33.376C205.032 34.976 204.696 36.672 204.696 38.464C204.696 39.456 204.888 40.192 205.272 40.672C205.688 41.152 206.248 41.392 206.952 41.392Z"/>
<path d="M246.443 35.392C246.859 35.392 247.179 35.6 247.403 36.016C247.659 36.4 247.786 36.896 247.786 37.504C247.786 38.24 247.674 38.816 247.451 39.232C247.226 39.648 246.875 40.016 246.395 40.336C243.643 42.192 241.627 43.568 240.347 44.464L237.275 46.528C236.059 53.152 234.459 58.352 232.475 62.128C230.523 65.936 228.027 67.84 224.987 67.84C223.355 67.84 222.027 67.328 221.003 66.304C219.979 65.312 219.467 64 219.467 62.368C219.467 60.096 220.363 57.648 222.155 55.024C223.947 52.432 227.307 49.232 232.235 45.424L232.523 43.552C231.979 44.416 231.259 45.088 230.363 45.568C229.499 46.016 228.635 46.24 227.771 46.24C225.787 46.24 224.203 45.52 223.019 44.08C221.835 42.64 221.243 40.752 221.243 38.416C221.243 35.856 221.835 33.44 223.019 31.168C224.203 28.864 225.771 27.024 227.723 25.648C229.707 24.24 231.803 23.536 234.011 23.536C234.715 23.536 235.179 23.68 235.403 23.968C235.659 24.224 235.867 24.704 236.027 25.408C236.635 25.28 237.339 25.216 238.139 25.216C238.939 25.216 239.499 25.344 239.819 25.6C240.171 25.824 240.347 26.288 240.347 26.992C240.347 27.376 240.331 27.68 240.299 27.904C240.171 28.896 239.771 31.408 239.099 35.44C238.971 36.208 238.827 37.056 238.667 37.984C238.539 38.88 238.395 39.84 238.235 40.864C240.699 38.944 243.067 37.248 245.339 35.776C245.755 35.52 246.123 35.392 246.443 35.392ZM229.499 41.392C230.235 41.392 230.939 40.944 231.611 40.048C232.283 39.152 232.763 37.872 233.051 36.208L234.587 28C233.275 28.032 232.059 28.544 230.939 29.536C229.819 30.496 228.923 31.776 228.251 33.376C227.579 34.976 227.243 36.672 227.243 38.464C227.243 39.456 227.435 40.192 227.819 40.672C228.235 41.152 228.795 41.392 229.499 41.392ZM225.515 63.184C226.315 63.184 227.21 62.224 228.202 60.304C229.226 58.384 230.203 55.328 231.131 51.136C228.667 53.248 226.891 55.152 225.803 56.848C224.715 58.544 224.171 60.032 224.171 61.312C224.171 61.856 224.267 62.304 224.459 62.656C224.683 63.008 225.035 63.184 225.515 63.184Z"/>
<path d="M271.475 35.296C271.891 35.296 272.211 35.488 272.435 35.872C272.691 36.256 272.819 36.784 272.819 37.456C272.819 38.736 272.515 39.728 271.907 40.432C270.435 42.128 268.915 43.52 267.347 44.608C265.811 45.696 264.051 46.24 262.067 46.24C260.435 46.24 259.203 45.776 258.371 44.848C257.539 43.888 257.123 42.512 257.123 40.72C257.123 39.824 257.347 38.224 257.795 35.92C258.211 33.904 258.419 32.512 258.419 31.744C258.419 31.232 258.243 30.976 257.891 30.976C257.475 30.976 256.883 31.52 256.115 32.608C255.347 33.664 254.579 35.072 253.811 36.832C253.043 38.592 252.419 40.448 251.939 42.4C251.331 44.96 249.827 46.24 247.427 46.24C246.467 46.24 245.827 45.904 245.507 45.232C245.219 44.528 245.075 43.28 245.075 41.488C245.075 40.464 245.091 39.648 245.123 39.04L245.171 35.2C245.171 30.272 245.667 25.136 246.659 19.792C247.683 14.448 249.171 9.968 251.123 6.352C253.107 2.704 255.475 0.879997 258.227 0.879997C259.699 0.879997 260.883 1.52 261.779 2.8C262.707 4.048 263.171 5.68 263.171 7.696C263.171 10.928 262.227 14.288 260.339 17.776C258.451 21.232 255.379 25.28 251.123 29.92C251.027 31.584 250.979 33.296 250.979 35.056C252.035 32.336 253.203 30.128 254.483 28.432C255.795 26.704 257.075 25.472 258.323 24.736C259.603 24 260.771 23.632 261.827 23.632C263.907 23.632 264.947 24.672 264.947 26.752C264.947 28 264.595 30.256 263.891 33.52C263.283 36.304 262.979 38.144 262.979 39.04C262.979 40.32 263.443 40.96 264.371 40.96C265.011 40.96 265.763 40.576 266.627 39.808C267.523 39.008 268.707 37.728 270.179 35.968C270.563 35.52 270.995 35.296 271.475 35.296ZM257.219 5.632C256.643 5.632 256.003 6.464 255.299 8.128C254.595 9.76 253.907 11.984 253.235 14.8C252.595 17.584 252.067 20.624 251.651 23.92C253.635 21.584 255.267 19.04 256.547 16.288C257.859 13.536 258.515 11.04 258.515 8.8C258.515 7.776 258.403 6.992 258.179 6.448C257.955 5.904 257.635 5.632 257.219 5.632Z"/>
<path d="M290.337 35.296C290.753 35.296 291.073 35.488 291.297 35.872C291.553 36.256 291.681 36.784 291.681 37.456C291.681 38.736 291.377 39.728 290.769 40.432C289.585 41.872 287.905 43.2 285.729 44.416C283.585 45.632 281.281 46.24 278.817 46.24C275.457 46.24 272.849 45.328 270.993 43.504C269.137 41.68 268.209 39.184 268.209 36.016C268.209 33.808 268.673 31.76 269.601 29.872C270.529 27.952 271.809 26.432 273.441 25.312C275.105 24.192 276.977 23.632 279.057 23.632C280.913 23.632 282.401 24.192 283.521 25.312C284.641 26.4 285.201 27.888 285.201 29.776C285.201 31.984 284.401 33.888 282.801 35.488C281.233 37.056 278.561 38.304 274.785 39.232C275.585 40.704 277.105 41.44 279.345 41.44C280.785 41.44 282.417 40.944 284.241 39.952C286.097 38.928 287.697 37.6 289.041 35.968C289.425 35.52 289.857 35.296 290.337 35.296ZM278.241 28.336C277.057 28.336 276.049 29.024 275.217 30.4C274.417 31.776 274.017 33.44 274.017 35.392V35.488C275.905 35.04 277.393 34.368 278.481 33.472C279.569 32.576 280.113 31.536 280.113 30.352C280.113 29.744 279.937 29.264 279.585 28.912C279.265 28.528 278.817 28.336 278.241 28.336Z"/>
<path d="M307.165 30.208C307.869 30.208 308.461 30.464 308.941 30.976C309.453 31.456 309.709 32.064 309.709 32.8C309.709 33.216 309.613 33.664 309.421 34.144C308.909 35.328 308.189 36.32 307.261 37.12C306.333 37.92 305.309 38.32 304.189 38.32C303.293 38.32 302.525 38 301.885 37.36C301.277 36.72 300.973 35.856 300.973 34.768C300.973 34.16 301.005 33.504 301.069 32.8C301.133 32.288 301.165 31.936 301.165 31.744C301.165 31.488 301.101 31.296 300.973 31.168C300.877 31.04 300.749 30.976 300.589 30.976C300.141 30.976 299.533 31.52 298.765 32.608C297.997 33.664 297.229 35.072 296.461 36.832C295.693 38.592 295.069 40.448 294.589 42.4C294.237 43.936 293.837 44.96 293.389 45.472C292.941 45.984 292.205 46.24 291.181 46.24C289.965 46.24 289.101 45.6 288.589 44.32C288.109 43.04 287.869 40.992 287.869 38.176C287.869 34.016 288.461 30.064 289.645 26.32C289.933 25.392 290.397 24.72 291.037 24.304C291.709 23.856 292.637 23.632 293.821 23.632C294.461 23.632 294.909 23.712 295.165 23.872C295.421 24.032 295.549 24.336 295.549 24.784C295.549 25.296 295.309 26.448 294.829 28.24C294.509 29.52 294.253 30.64 294.061 31.6C293.869 32.56 293.709 33.744 293.581 35.152C294.637 32.4 295.821 30.16 297.133 28.432C298.445 26.704 299.725 25.472 300.973 24.736C302.221 24 303.357 23.632 304.381 23.632C305.309 23.632 306.013 23.904 306.493 24.448C307.005 24.96 307.261 25.728 307.261 26.752C307.261 27.36 307.085 28.512 306.733 30.208H307.165Z"/>
</svg>
